<?xml version="1.0" standalone="no"?>
<!DOCTYPE svg PUBLIC "-//W3C//DTD SVG 20010904//EN"
 "http://www.w3.org/TR/2001/REC-SVG-20010904/DTD/svg10.dtd">
<svg version="1.0" xmlns="http://www.w3.org/2000/svg"
 width="1280.000000pt" height="896.000000pt" viewBox="0 0 1280.000000 896.000000"
 preserveAspectRatio="xMidYMid meet">
<metadata>
Created by potrace 1.15, written by Peter Selinger 2001-2017
</metadata>
<defs>
	<linearGradient id="clojure" x1="0%" y1="0%" x2="100%" y2="0%">
		<stop offset="0%" style="stop-color:rgb(88, 129,216);stop-opacity:1" />
		<stop offset="100%" style="stop-color:rgb(98,177,50);stop-opacity:1" />
	</linearGradient>
</defs>
<g transform="translate(0.000000,896.000000) scale(0.100000,-0.100000)"
fill="url(#clojure)" stroke="none">
<path d="M7435 8440 c-111 -14 -275 -42 -400 -69 -143 -31 -261 -61 -460 -119
-182 -54 -344 -98 -450 -124 -135 -33 -337 -68 -390 -67 -71 2 -391 37 -445
49 -25 6 -81 17 -125 25 -86 16 -208 41 -240 49 -20 6 -46 12 -255 61 -193 46
-364 80 -502 100 -24 4 -47 9 -52 12 -5 3 -82 5 -171 5 -437 -3 -725 -130
-915 -402 -39 -56 -46 -68 -101 -174 -29 -54 -109 -175 -179 -268 -159 -212
-199 -292 -268 -533 -7 -22 -18 -62 -26 -90 -8 -27 -27 -95 -41 -150 -15 -55
-30 -111 -35 -125 -7 -21 -63 -254 -100 -415 -35 -155 -95 -378 -121 -452 -17
-48 -35 -104 -41 -123 -20 -66 -126 -279 -183 -365 -73 -111 -161 -204 -245
-260 -37 -25 -71 -45 -74 -45 -4 0 -28 -10 -54 -22 -59 -26 -249 -37 -369 -19
-224 33 -437 172 -550 359 -134 221 -144 537 -26 847 63 164 229 377 364 467
134 89 285 120 403 83 53 -17 57 -17 75 -1 10 9 24 37 31 61 11 41 10 47 -16
96 -35 64 -112 128 -211 176 -127 62 -226 56 -388 -21 -310 -147 -682 -640
-795 -1054 -40 -144 -52 -227 -57 -389 -9 -276 28 -470 130 -683 123 -257 375
-485 667 -604 36 -15 74 -31 85 -36 34 -15 187 -60 204 -60 9 0 41 -7 71 -15
30 -8 145 -24 255 -36 246 -26 382 -23 695 16 63 8 125 17 138 19 12 3 22 2
22 -3 0 -4 -45 -45 -100 -91 -55 -47 -100 -87 -100 -90 0 -7 71 -28 139 -40
100 -19 250 -10 316 19 65 28 158 81 210 119 133 96 347 330 440 479 11 17 45
71 76 120 31 48 75 123 98 165 23 43 49 90 58 105 35 62 253 142 538 198 125
25 239 52 284 69 l43 16 127 -92 c69 -50 150 -109 179 -131 l53 -41 -6 -70
c-14 -153 -45 -396 -75 -576 -4 -30 -13 -84 -19 -120 -20 -133 -105 -579 -181
-955 -11 -55 -25 -122 -30 -150 -10 -47 -58 -302 -80 -425 -19 -100 -73 -443
-91 -570 -6 -41 -14 -102 -19 -135 -23 -166 -40 -317 -55 -475 -30 -326 -37
-341 -271 -557 -181 -167 -213 -227 -161 -304 59 -88 213 -124 579 -135 248
-7 429 10 519 48 105 45 164 152 139 253 -7 28 -26 77 -43 110 -50 100 -44
142 43 322 40 81 92 204 115 273 77 223 152 423 220 585 29 70 120 275 146
330 15 33 51 109 79 169 28 59 52 107 54 105 20 -25 96 -223 96 -250 0 -20 7
-78 14 -130 42 -268 85 -406 208 -654 141 -286 175 -370 173 -425 -3 -64 -16
-104 -73 -220 -42 -86 -57 -125 -56 -156 2 -121 129 -158 459 -134 199 14 218
16 320 40 171 40 278 92 348 170 71 79 83 162 42 285 -28 83 -111 241 -194
369 -209 324 -271 541 -251 886 6 91 14 221 20 290 6 69 13 167 16 219 2 52 7
98 9 102 3 3 7 60 10 125 3 66 10 151 15 189 16 110 30 261 36 375 3 58 7 106
9 108 8 8 201 -55 325 -107 93 -39 92 -39 335 -158 305 -151 550 -244 715
-273 36 -6 76 -13 90 -16 39 -7 177 -6 394 1 179 7 198 6 193 -8 -3 -9 -13
-49 -21 -89 -9 -40 -27 -111 -42 -158 -40 -130 -62 -215 -88 -335 -23 -103
-32 -151 -56 -292 -18 -112 -43 -348 -60 -573 -34 -461 -48 -586 -71 -630 -10
-19 -55 -82 -100 -140 -90 -115 -139 -198 -139 -237 0 -38 34 -86 77 -110 21
-11 79 -31 128 -44 86 -23 106 -24 435 -24 372 0 493 6 595 30 185 42 221 114
141 281 -59 124 -50 199 74 639 26 94 51 188 55 210 3 22 14 69 25 105 10 36
26 95 35 133 18 67 35 88 35 43 0 -32 89 -299 135 -406 81 -189 204 -397 345
-586 124 -165 121 -205 -23 -394 -41 -54 -47 -68 -42 -94 22 -108 122 -142
445 -152 333 -10 586 28 740 112 65 35 95 92 81 150 -31 127 -84 336 -96 379
-8 28 -17 64 -20 80 -4 17 -10 41 -15 55 -48 151 -140 584 -165 780 -62 477
-53 733 40 1135 8 33 28 121 45 195 17 74 35 151 40 170 5 19 18 67 29 105 10
39 21 81 24 95 3 14 10 43 16 65 10 38 19 75 56 240 26 117 36 166 56 275 32
176 67 420 74 520 3 52 10 120 13 150 l7 55 18 -110 c10 -60 20 -121 23 -135
3 -14 11 -63 19 -110 7 -47 19 -107 25 -135 6 -27 18 -84 26 -125 12 -64 53
-263 84 -405 5 -22 16 -74 25 -115 9 -41 20 -84 25 -95 5 -11 15 -49 23 -85
50 -222 183 -641 277 -870 90 -223 251 -548 320 -650 10 -14 40 -62 68 -106
60 -98 183 -265 246 -335 25 -28 46 -49 46 -47 0 2 -19 39 -41 83 -72 139 -87
169 -114 230 -70 155 -108 246 -131 315 -13 41 -29 84 -33 95 -19 42 -90 270
-141 455 -17 62 -68 272 -90 370 -12 52 -25 111 -30 130 -14 55 -56 270 -85
435 -14 83 -30 168 -35 190 -8 38 -15 79 -26 170 -3 22 -7 47 -10 55 -3 8 -10
48 -15 90 -12 88 -23 168 -38 265 -5 39 -13 99 -17 135 -3 36 -8 68 -11 73 -2
4 -9 49 -14 100 -5 50 -18 147 -29 214 -11 67 -25 153 -30 190 -10 76 -47 297
-60 358 -4 22 -15 78 -24 125 -10 47 -21 99 -26 115 -5 17 -19 68 -31 115 -43
173 -121 388 -189 525 -78 158 -135 243 -250 374 -44 50 -80 95 -80 101 0 5
-5 10 -10 10 -6 0 -61 45 -123 101 -115 104 -279 230 -402 310 -76 50 -350
209 -359 209 -3 0 -56 24 -119 54 -62 29 -124 57 -138 61 -13 4 -40 16 -59 26
-19 11 -38 19 -43 19 -4 0 -27 9 -51 19 -23 11 -96 40 -162 66 -65 25 -128 50
-139 55 -20 9 -71 28 -155 56 -25 9 -54 20 -65 25 -11 5 -40 15 -65 23 -69 22
-253 85 -275 95 -11 5 -94 33 -185 61 -91 29 -176 56 -190 61 -14 5 -54 16
-90 25 -36 8 -99 24 -140 35 -169 43 -369 82 -560 109 -75 11 -397 11 -485 0z"/>
</g>
</svg>
